<?xml version="1.0" encoding="UTF-8"?>
<!DOCTYPE svg PUBLIC "-//W3C//DTD SVG 1.1//EN" "http://www.w3.org/Graphics/SVG/1.1/DTD/svg11.dtd">
<!-- Creator: CorelDRAW -->
<svg xmlns="http://www.w3.org/2000/svg" xml:space="preserve" width="316.715mm" height="273.224mm" version="1.1" style="shape-rendering:geometricPrecision; text-rendering:geometricPrecision; image-rendering:optimizeQuality; fill-rule:evenodd; clip-rule:evenodd"
viewBox="0 0 3276.69 2826.74"
 xmlns:xlink="http://www.w3.org/1999/xlink"
 xmlns:xodm="http://www.corel.com/coreldraw/odm/2003">
 <defs>
  <style type="text/css">
   <![CDATA[
    .fil3 {fill:none;fill-rule:nonzero}
    .fil0 {fill:#FEFEFE}
    .fil1 {fill:#1100A8}
    .fil2 {fill:#2B2A29;fill-rule:nonzero}
   ]]>
  </style>
    <clipPath id="id0" style="clip-rule:nonzero">
     <path d="M3017.24 1578.17l2.52 2.52c0,8.41 -5.89,21.02 -17.66,37.84 -13.46,16.83 -38.69,41.22 -75.69,73.18 -37.01,31.95 -78.22,64.33 -123.64,97.13 -45.42,32.81 -91.67,61.4 -138.78,85.79 -47.1,24.39 -88.31,36.59 -123.64,36.59 -25.22,0 -45.83,-7.99 -61.81,-23.97 -15.98,-15.97 -23.97,-43.31 -23.97,-82 0,-23.56 2.53,-47.52 7.57,-71.91 5.04,-24.4 8.41,-48.36 10.1,-71.92l0 -2.52c0,-5.04 -1.69,-7.56 -5.05,-7.56 -6.73,0 -21.02,8.41 -42.89,25.23 -21.87,18.5 -42.89,39.95 -63.07,64.34 -20.19,24.39 -40.37,49.21 -60.55,74.43 -20.19,25.23 -41.63,49.21 -64.35,71.91 -22.7,22.71 -46.68,41.63 -71.91,56.77 -18.5,10.1 -37.01,15.14 -55.51,15.14 -23.55,0 -44.57,-7.56 -63.07,-22.7 -18.5,-15.14 -30.28,-35.33 -35.33,-60.55 -1.68,-3.37 -2.52,-9.25 -2.52,-17.67 0,-28.59 11.77,-64.33 35.33,-107.23 23.55,-42.89 53.82,-84.11 90.83,-123.64 37.01,-39.53 77.38,-73.59 121.11,-102.19 43.74,-28.6 84.95,-42.89 123.64,-42.89l20.19 0c23.55,3.37 41.62,11.77 54.24,25.23 12.62,13.45 18.93,26.07 18.93,37.84 0,11.77 -5.89,18.5 -17.67,20.19 -23.55,6.73 -54.67,22.7 -93.35,47.94 -38.69,25.23 -76.54,53.41 -113.54,84.53 -37.01,31.12 -68.97,63.92 -95.88,98.4 -26.91,34.48 -40.37,66.02 -40.37,94.62 0,8.41 2.53,12.61 7.57,12.61 11.77,0 34.49,-16.4 68.13,-49.2 33.64,-32.8 70.65,-68.54 111.01,-107.24 40.37,-38.69 80.33,-74.43 119.85,-107.23 39.53,-32.8 71.91,-49.2 97.14,-49.2 18.5,0 31.54,9.25 39.1,27.75 7.57,18.5 11.36,35.33 11.36,50.47 0,16.83 -2.1,34.06 -6.3,51.73 -4.21,17.66 -7.99,36.58 -11.36,56.77 -1.68,8.41 -2.95,15.97 -3.78,22.7 -0.84,6.73 -1.26,12.62 -1.26,17.66 0,37.01 14.29,55.51 42.89,55.51 26.91,0 62.23,-13.88 105.97,-41.63 43.74,-27.75 86.63,-58.03 128.68,-90.83 42.05,-32.8 78.22,-63.07 108.5,-90.83 30.28,-27.76 45.42,-41.63 45.42,-41.63 20.18,-20.19 34.48,-30.28 42.89,-30.28zm-1607.24 335.57c-21.87,0 -44.15,-4.63 -66.87,-13.88 -22.7,-9.25 -43.73,-21.44 -63.07,-36.58 -19.35,-15.14 -35.33,-32.81 -47.95,-52.99 -12.61,-20.18 -18.92,-42.05 -18.92,-65.61 0,-23 5.6,-49.52 16.79,-79.51 -22.66,18.93 -48.02,39.14 -76.08,60.59 -42.89,32.8 -87.88,63.07 -134.98,90.83 -47.1,27.76 -95.04,50.89 -143.82,69.39 -48.78,18.5 -95.88,27.75 -141.3,27.75 -21.87,0 -44.15,-4.63 -66.87,-13.88 -22.7,-9.25 -43.73,-21.44 -63.07,-36.58 -19.35,-15.14 -35.33,-32.81 -47.95,-52.99 -12.61,-20.18 -18.92,-42.05 -18.92,-65.61 0,-25.22 6.73,-54.67 20.19,-88.31 13.45,-33.64 31.11,-65.6 52.98,-95.88 21.87,-30.28 46.68,-55.5 74.44,-75.69 27.75,-20.18 56.77,-30.28 87.05,-30.28 20.18,0 39.53,4.63 58.03,13.88 18.5,9.25 27.75,25.65 27.75,49.2 0,21.87 -9.68,42.89 -29.02,63.08 -19.35,20.18 -40.8,37.84 -64.35,52.99 -23.55,15.14 -45,27.33 -64.33,36.58 -19.35,9.25 -29.86,14.72 -31.55,16.4 -10.09,8.42 -17.66,22.28 -22.7,41.63 -5.05,19.35 -7.57,37.42 -7.57,54.25 0,5.04 0.43,9.25 1.26,12.62 0.84,3.37 1.26,6.73 1.26,10.1 3.37,26.91 13.46,46.25 30.29,58.03 16.82,11.77 37.84,17.66 63.07,17.66 38.68,0 84.53,-10.51 137.51,-31.54 52.98,-21.02 104.29,-45.42 153.91,-73.17 49.62,-27.75 93.36,-55.51 131.21,-83.27 37.84,-27.75 61.81,-47.52 71.91,-59.29 3.36,-3.37 8.83,-10.1 16.4,-20.19 7.56,-10.1 15.56,-19.35 23.96,-27.76l1.6 -1.5c5.07,-8.02 10.43,-15.93 16.06,-23.73 21.87,-30.28 46.69,-55.5 74.44,-75.69 27.75,-20.18 56.77,-30.28 87.05,-30.28 20.18,0 39.53,4.63 58.03,13.88 18.5,9.25 27.75,25.65 27.75,49.2 0,21.87 -9.68,42.89 -29.01,63.08 -19.35,20.18 -40.8,37.84 -64.35,52.99 -23.55,15.14 -45,27.33 -64.34,36.58 -19.35,9.25 -29.86,14.72 -31.55,16.4 -10.09,8.42 -17.66,22.28 -22.7,41.63 -5.05,19.35 -7.57,37.42 -7.57,54.25 0,5.04 0.43,9.25 1.26,12.62 0.84,3.37 1.26,6.73 1.26,10.1 3.36,26.91 13.46,46.25 30.29,58.03 16.82,11.77 37.84,17.66 63.07,17.66 38.69,0 84.53,-10.51 137.52,-31.54 52.98,-21.02 104.29,-45.42 153.9,-73.17 49.62,-27.75 93.36,-55.51 131.21,-83.27 37.84,-27.75 61.81,-47.52 71.91,-59.29 3.37,-3.37 8.83,-10.1 16.4,-20.19 4.52,-6.03 9.19,-11.75 14.01,-17.18 27.3,-113.12 55.02,-221.34 83.12,-324.7 28.6,-105.13 50.47,-193.86 65.61,-266.2 8.41,-33.64 12.19,-62.66 11.36,-87.05 -0.84,-24.39 0,-46.68 2.52,-66.86 2.52,-20.19 8.83,-39.53 18.92,-58.03 10.1,-18.5 30.28,-40.37 60.55,-65.61 28.6,-25.23 52.99,-37.85 73.17,-37.85 18.5,0 27.75,12.62 27.75,37.85 0,15.14 -5.04,37.01 -15.14,65.61 -10.09,26.91 -26.48,73.59 -49.2,140.03 -22.71,66.45 -48.36,145.09 -76.95,235.92 -28.6,90.83 -58.46,189.23 -89.58,295.21 -31.12,105.97 -59.29,211.95 -84.53,317.91 -25.22,105.97 -46.26,208.16 -63.07,306.56 -16.83,98.4 -25.23,183.77 -25.23,256.1 0,65.61 8.41,118.17 25.23,157.71 16.82,39.53 44.57,59.29 83.27,59.29l2.52 0c6.73,0 10.1,3.37 10.1,10.09 0,6.73 -2.95,13.88 -8.84,21.45 -5.89,7.56 -14.72,11.36 -26.49,11.36 -10.1,0 -20.61,-3.79 -31.54,-11.36 -10.94,-7.57 -23.13,-20.61 -36.59,-39.11 -23.55,-33.64 -39.95,-75.28 -49.2,-124.9 -9.25,-49.61 -13.88,-103.86 -13.88,-162.74 0,-95.88 10.51,-201.85 31.54,-317.91 17.99,-99.33 38.45,-198.35 61.38,-297.06 -26.43,22.67 -56.98,47.25 -91.65,73.76 -42.89,32.8 -87.88,63.07 -134.98,90.83 -47.1,27.76 -95.04,50.89 -143.82,69.39 -48.78,18.5 -95.88,27.75 -141.3,27.75zm-52.99 -257.36c5.05,0 15.14,-5.04 30.28,-15.14 15.14,-10.1 30.7,-21.87 46.69,-35.32 15.97,-13.46 30.69,-26.92 44.15,-40.37 13.45,-13.46 20.18,-24.39 20.18,-32.81 0,-6.72 -5.04,-10.09 -15.14,-10.09 -8.41,1.68 -19.76,8.41 -34.06,20.18 -14.3,11.77 -28.6,24.82 -42.89,39.11 -14.31,14.29 -26.49,28.6 -36.59,42.89 -10.1,14.29 -15.14,23.97 -15.14,29.02l0 2.52 2.52 0zm-676.2 0c5.05,0 15.14,-5.04 30.28,-15.14 15.14,-10.1 30.7,-21.87 46.68,-35.32 15.97,-13.46 30.69,-26.92 44.15,-40.37 13.45,-13.46 20.18,-24.39 20.18,-32.81 0,-6.72 -5.04,-10.09 -15.14,-10.09 -8.41,1.68 -19.76,8.41 -34.06,20.18 -14.3,11.77 -28.6,24.82 -42.89,39.11 -14.3,14.29 -26.49,28.6 -36.59,42.89 -10.1,14.29 -15.14,23.97 -15.14,29.02l0 2.52 2.52 0zm-292.68 948.71c-10.1,0 -20.61,-3.79 -31.54,-11.36 -10.94,-7.57 -23.13,-20.61 -36.59,-39.11 -23.55,-33.64 -39.95,-75.28 -49.2,-124.9 -9.25,-49.61 -13.88,-103.86 -13.88,-162.74 0,-95.88 10.51,-201.85 31.54,-317.91 21.02,-116.06 45.42,-231.71 73.17,-346.94 27.75,-115.22 55.94,-225.4 84.53,-330.53 28.6,-105.13 50.47,-193.86 65.61,-266.2 8.41,-33.64 12.19,-62.66 11.36,-87.05 -0.84,-24.39 0,-46.68 2.52,-66.86 2.52,-20.19 8.82,-39.53 18.92,-58.03 10.1,-18.5 30.28,-40.37 60.55,-65.61 28.6,-25.23 52.99,-37.85 73.17,-37.85 18.5,0 27.75,12.62 27.75,37.85 0,15.14 -5.04,37.01 -15.14,65.61 -10.09,26.91 -26.48,73.59 -49.2,140.03 -22.71,66.45 -48.36,145.09 -76.95,235.92 -28.6,90.83 -58.46,189.23 -89.58,295.21 -31.12,105.97 -59.29,211.95 -84.53,317.91 -25.22,105.97 -46.26,208.16 -63.07,306.56 -16.83,98.4 -25.23,183.77 -25.23,256.1 0,65.61 8.41,118.17 25.23,157.71 16.82,39.53 44.57,59.29 83.27,59.29l2.52 0c6.73,0 10.1,3.37 10.1,10.09 0,6.73 -2.95,13.88 -8.84,21.45 -5.89,7.56 -14.72,11.36 -26.49,11.36z"/>
    </clipPath>
 </defs>
 <g id="Layer_x0020_1">
  <metadata id="CorelCorpID_0Corel-Layer"/>
  <rect class="fil0" y="-0" width="3276.69" height="2826.74"/>
  <g id="_2265403909968">
   <g>
    <path class="fil1" d="M867.55 1222.99l111.13 -284.59 37.1 0 0 313.2 -37.52 0 0 -262.64 -102.75 262.64 -35.13 0 -109.48 -260.95 0 260.95 -17.89 0 0 -313.2 35.02 0 119.53 284.59zm421.34 -280.32l0 13.62 -168.7 0 0 129.77 116.66 0 0 17.89 -116.66 0 0 129.77 174.75 0 0 17.89 -212.28 0 0 -313.2 206.23 0 0 4.27zm262.54 175.33l-108.12 0 0 -17.89 145.65 0 0 89.53 -0.7 2.34c-0.12,0.18 -40.57,63.79 -121.44,63.79 -53.6,0 -94.79,-16.43 -123.25,-43.26 -31.19,-29.4 -46.97,-71.19 -46.97,-117.48 0,-46.22 16,-87.94 47.17,-117.33 28.58,-26.96 69.83,-43.47 123.05,-43.47 34.52,0 59.61,9.7 77.74,22.87 30.11,21.86 40.92,53.26 44.18,65.86l1.05 4.04 -19.75 5.58 -1 -4.39c-1.76,-7.72 -9.72,-35.32 -36.12,-54.36 -15.12,-10.9 -36.37,-19.01 -66.1,-19.01 -38.29,0 -69.77,14.85 -91.97,38.98 -23.44,25.49 -36.62,61.41 -36.62,101.24 0,40.17 12.64,76.38 36.12,101.91 21.83,23.74 53.14,38.32 92.48,38.32 19.02,0 39.66,-9.85 55.87,-23.41 16.85,-14.1 28.75,-32 28.75,-46.69l0 -47.17zm132.18 -14.05l0 147.66 -37.52 0 0 -313.2 37.52 0 0 147.66 179.86 0 0 -147.66 37.52 0 0 313.2 -37.52 0 0 -147.66 -179.86 0z"/>
    <g>
     <path class="fil1" d="M2064.91 740.44c-11.07,10.17 -16.13,29.33 -11.97,40.51 0.72,1.91 2.67,3.37 4.05,5.03 1.59,-1.5 4.14,-2.74 4.61,-4.54 2.1,-7.93 4.19,-15.95 5.12,-24.06 0.56,-4.94 -1,-10.13 -1.81,-16.94zm-458.69 131.82c-21.52,-18.46 -34.8,-40.71 -33.34,-69.7 -12.92,0 -25.79,0 -39.8,0 16.49,33.03 37.1,59.43 73.14,69.7zm440.19 -86.67c-6.61,-15.69 1.63,-29.97 2.86,-44.98 -17.27,0.99 -33.79,1.85 -50.29,2.99 -1.8,0.13 -4.09,1.35 -5.13,2.8 -4.91,6.82 -7.64,14.44 -7.55,24.65 12.03,0 23.6,0 35.17,0 -0.04,0.75 -0.07,1.5 -0.11,2.26 -11.74,0 -23.47,0 -35.13,0 -2.17,11.97 -1.56,12.67 9.8,12.42 5.98,-0.13 11.97,-0.12 17.95,-0.13 10.31,-0.02 20.62,-0.01 32.44,-0.01zm-526.89 -32.55c-0.8,0.78 -1.61,1.55 -2.42,2.34 3.69,12.21 7.24,24.47 11.28,36.56 0.45,1.35 3.66,2.53 5.59,2.52 12.68,-0.03 25.37,-0.18 38.02,-0.88 2.11,-0.12 5.02,-2.68 5.9,-4.8 2.9,-7 4.82,-14.4 7.53,-21.49 1.83,-4.77 4.36,-9.26 6.75,-14.25 -25.02,0 -48.84,0 -72.66,0zm-27.91 42.17c-3.5,-13.16 -6.49,-25.21 -10.09,-37.08 -0.5,-1.64 -3.97,-3.4 -6.04,-3.38 -24.2,0.24 -48.39,0.91 -72.6,1.21 -3.84,0.05 -5.67,1.28 -7.07,4.84 -2.71,6.9 -8.34,10.33 -15.61,10.61 -7.33,0.28 -13.26,-2.89 -16.19,-9.63 -1.87,-4.32 -4.47,-4.86 -8.53,-4.75 -37.1,0.92 -74.2,1.66 -111.3,2.5 -1.96,0.04 -3.92,0.45 -6.19,0.72 0.33,3.88 0.59,7.03 0.83,9.82 0.82,0.41 1.02,0.59 1.22,0.6 2.06,0.06 4.12,0.03 6.18,0.12 16.35,0.68 29.63,7.37 37.81,21.67 3.19,5.59 6.6,6.85 12.45,6.73 62.68,-1.33 125.37,-2.42 188.05,-3.59 2.24,-0.04 4.47,-0.24 7.08,-0.39zm132.07 -2.35c118.73,-2.3 236.21,-4.58 352.35,-6.84 2.51,-14.46 4.85,-27.87 7.19,-41.32 -11.55,0 -24.36,0.12 -37.16,-0.07 -4.49,-0.07 -6.9,1.06 -8.25,5.91 -2.01,7.21 -9.03,11.81 -16.14,11.96 -7.41,0.15 -14.22,-3.87 -16.65,-11.16 -1.57,-4.71 -3.91,-6.12 -8.47,-5.54 -2,0.26 -4.11,-0.41 -6.17,-0.42 -9.82,-0.05 -19.64,-0.02 -29.18,-0.02 -3.61,12.6 -8.97,17.81 -18.01,18.15 -9.23,0.34 -14.67,-4.41 -18.96,-16.4 -14.09,0 -28.08,0 -42.19,0 -2.09,10.37 -6.84,17.64 -17.58,18.22 -11.44,0.62 -16.75,-6.8 -19.51,-16.97 -30.35,0.81 -60.29,1.58 -90.23,2.49 -1.7,0.05 -3.84,0.72 -4.98,1.88 -11,11.23 -20.56,23.44 -26.06,40.14zm361.24 129.56c6.57,-4.28 6.03,-10.89 6.09,-17.54 0.35,-34.78 0.88,-69.56 1.34,-104.35 0.02,-2.06 0,-4.11 0,-6.84 -11.21,0 -22.06,0 -33.79,0 0,15.78 0.16,30.48 -0.03,45.16 -0.47,36.86 -1.08,73.71 -1.69,110.56 -0.09,5.07 -0.91,10.26 5.82,12.13 0.91,0.25 1.37,2.17 2.04,3.32 -2.27,-1.39 -4.39,-3.25 -6.84,-4.08 -8.25,-2.8 -17.7,4.24 -13.69,16.64 -4.43,-6.93 -2.56,-13.32 4.53,-17.8 2.03,-1.28 4.25,-4.21 4.29,-6.42 1.03,-51.66 1.77,-103.32 2.54,-154.99 0.02,-1.1 -0.3,-2.2 -0.55,-3.92 -2.95,0 -5.66,-0.04 -8.36,0.01 -105.63,1.99 -211.25,4.07 -316.89,5.82 -7.15,0.12 -10.29,2.25 -9.86,9.26 0.44,7.11 0.12,14.4 1.62,21.28 6.97,32.08 30.59,45.33 61.74,34.82 29.13,-9.84 52.49,-28.4 73.99,-49.7 3.93,-3.9 7.99,-7.66 12.19,-11.25 1.75,-1.49 4.03,-2.35 6.08,-3.49 0.42,0.42 0.83,0.84 1.25,1.27 -0.99,1.91 -1.63,4.13 -3.03,5.68 -32.35,35.82 -67,68.9 -116.69,78.14 -66.55,12.38 -125.31,-10.77 -157.58,-76.13 -2.64,-5.34 -5.53,-7.19 -11.51,-7.05 -64.57,1.48 -129.15,2.53 -193.72,4.04 -7.81,0.18 -12.39,-1.47 -15.98,-9.25 -6.75,-14.63 -23.4,-21.85 -41.7,-19.19 -5.27,0.77 -7.42,-0.45 -7.41,-5.67 0.01,-4.36 0.26,-8.78 -0.3,-13.09 -0.86,-6.56 2.46,-7.77 8.03,-7.87 42.42,-0.75 84.84,-1.67 127.89,-2.56 0.57,9.59 3.07,18.71 15.08,18.67 11.97,-0.03 14.16,-8.89 13.74,-20.25 28.99,0 57.24,0 86.16,0 -3.94,-48.24 5.44,-92.15 27.82,-133.26 -3.4,10.68 -6.97,21.31 -10.18,32.06 -9.32,31.15 -16.41,63.08 -12.44,95.47 6.89,56.19 29.77,103.65 83.11,130.63 17.59,8.9 36.94,11.24 52.6,10.1 -7.28,-2.04 -18.48,-4.44 -29.13,-8.35 -10.97,-4.03 -22.17,-8.35 -31.84,-14.72 -9.68,-6.38 -18.29,-14.8 -26.08,-23.49 -7.8,-8.69 -14.75,-18.37 -20.74,-28.41 -10.28,-17.23 -15.79,-36.17 -17.79,-56.23 -2.57,-25.87 -3.79,-51.59 4.79,-76.69 3.04,-8.89 6.79,-17.53 10.88,-26.14 -24.52,78.96 -19.71,150.54 49.68,206.41 -22.42,-25.22 -39.38,-53.86 -46.29,-87.3 -6.95,-33.61 -3.28,-66.2 16,-95.91 -1.75,6.35 -3.99,12.61 -5.14,19.06 -2.83,15.82 -5.21,31.73 -7.68,47.62 -0.85,5.47 1.15,7.75 7.18,7.53 22.79,-0.81 45.59,-1.04 68.38,-1.76 2.4,-0.08 5.7,-1.32 6.97,-3.13 28.05,-40.18 68.1,-63.34 112.81,-79.85 10.37,-3.83 21.03,-6.89 31.6,-10.16 27.36,-8.46 51.55,-22.28 72.1,-42.33 0.99,-0.96 2.04,-1.86 3.11,-2.73 0.34,-0.27 0.83,-0.34 2.23,0.43 -5.2,5.17 -10.2,10.56 -15.62,15.48 -18.82,17.08 -41.22,27.72 -65.14,35.44 -31.05,10.03 -61.37,21.74 -88.54,40.16 -36.58,24.8 -61.49,57.74 -70.58,101.84 -5.85,28.35 15.36,61.06 39.37,71.09 0.76,0.31 1.59,0.46 2.79,0.27 -18.38,-13.57 -25.57,-32.82 -26.25,-54.19 -0.83,-26.29 6.68,-50.35 23.5,-71.31 19.22,-23.94 45.73,-37.72 71.71,-52.03 18.28,-10.07 37.63,-18.22 56.5,-27.22 0.41,0.72 0.82,1.43 1.23,2.15 -2.3,1.33 -4.54,2.8 -6.93,3.96 -31.34,15.22 -62.12,31.36 -91.32,50.55 -25.63,16.84 -41.51,39.91 -46.8,69.63 -3.4,19.12 -1.04,38.33 8.48,55.76 3.1,5.67 8.18,10.26 12.35,15.36 0.61,-0.44 1.23,-0.88 1.84,-1.32 -1.3,-1.9 -2.65,-3.76 -3.88,-5.69 -9.98,-15.76 -14.05,-32.5 -11.05,-51.36 6.32,-39.72 33.2,-63.09 64.86,-82.23 16.72,-10.11 34.79,-18 52.35,-26.69 28.34,-14.03 55.09,-30.18 74.44,-56.04 5.8,-7.75 10.86,-16.03 16.27,-24.07 1.21,-1.79 2.46,-3.55 5.15,-4.56 -0.87,2.25 -1.71,4.52 -2.62,6.76 -11.31,27.8 -30.83,48.65 -56.17,63.8 -17.17,10.27 -35.24,19.13 -53.26,27.89 -18.28,8.88 -35.72,18.92 -51.95,31.03 0.12,0.63 0.24,1.26 0.36,1.89 2.08,0 4.15,0.03 6.23,-0.01 24.2,-0.34 48.41,-0.59 72.6,-1.12 5.44,-0.12 8.59,0.31 8.03,7.31 -0.57,7.15 6.72,13.12 14.21,13.04 7.11,-0.08 14.09,-5.87 13.65,-12.89 -0.45,-7.19 2.42,-8.49 8.67,-8.34 13.76,0.34 27.55,0.1 41.88,0.1 0.1,1.98 0.13,3.99 0.31,5.99 0.71,7.58 6.85,13.17 14.39,13.14 7.65,-0.03 14.1,-5.51 13.9,-13.31 -0.17,-6.6 2.68,-7.7 8.21,-7.61 13.97,0.22 27.95,0.07 42.05,0.07 1.93,14.79 5.57,20.5 14.42,19.45 4.25,-0.51 9.48,-3.31 11.76,-6.73 2.31,-3.46 1.53,-8.98 2.16,-14.11 0.55,-0.12 1.63,-0.5 2.72,-0.54 20.03,-0.79 40.06,-2 60.09,-2.15 15.64,-0.12 31.28,1.27 46.94,1.55 3.9,0.07 8.06,-0.94 11.7,-2.44 7.15,-2.93 14.26,0.56 16.37,9.85 3.37,14.87 1.42,29.32 -5.87,42.89 -0.21,0.41 -0.5,0.78 -0.77,1.15 -3.45,4.69 -7.48,6.91 -13.7,5.09 -4.57,-1.34 -9.57,-1.76 -14.36,-1.65 -13.57,0.29 -27.13,1.06 -41.14,1.66 -0.22,2.08 -0.53,3.84 -0.56,5.59 -0.55,37.14 -1.01,74.27 -1.66,111.4 -0.07,4.26 0.46,6.94 5.03,8.95 6.3,2.77 8.21,10.46 5.22,16.6 -3.05,6.25 -8.98,8.19 -16.02,5.23 1.83,0.09 3.67,0.37 5.48,0.25 6.06,-0.44 10.37,-5.45 10.14,-11.63 -0.21,-5.67 -4.88,-10.88 -10.45,-10.55 -3.21,0.19 -6.33,2.08 -9.48,3.21z"/>
     <path class="fil1" d="M1761.17 610.33c4.25,-1.99 8.55,-3.92 12.76,-6 25.27,-12.51 50.1,-25.75 70.62,-45.59 29.72,-28.76 46.86,-64.43 54.65,-104.41 4.3,-22.09 5.64,-44.77 8.29,-67.18 0.3,-2.51 0.42,-5.03 1.61,-7.54 0,11.23 0.53,22.49 -0.09,33.69 -1.93,34.54 -7.56,68.3 -22.84,99.82 -19.99,41.21 -52.38,69.68 -92.91,89.44 -22.17,10.8 -45.04,20.2 -67.12,31.17 -37.04,18.4 -72.88,38.78 -102.6,68.27 -1.84,1.83 -4.05,3.3 -6.09,4.93 -0.55,-0.43 -1.1,-0.88 -1.64,-1.32 2.19,-3.57 3.75,-7.81 6.67,-10.61 14.29,-13.69 28.29,-27.81 43.63,-40.25 25.27,-20.48 51.14,-40.21 73.26,-64.23 25.73,-27.93 42.9,-60.37 50.66,-97.65 0.08,-0.39 -0.18,-0.86 -0.28,-1.32 -0.4,-0.13 -0.88,-0.47 -1.18,-0.35 -24.23,9.5 -48.86,18.13 -72.58,28.77 -45.17,20.26 -77.08,53.71 -94.99,100.15 -0.51,1.33 -1.45,2.51 -2.18,3.75 -0.67,-0.12 -1.34,-0.23 -2.01,-0.35 0.42,-6.46 -0.1,-13.15 1.4,-19.36 13.91,-57.58 43.82,-104.52 93.01,-138.5 26.7,-18.44 57.25,-28.44 86.91,-40.56 20.63,-8.43 41.08,-17.74 60.41,-28.75 17.97,-10.25 31.8,-25.87 43.19,-43.23 22.39,-34.12 21.88,-76.26 -1.01,-110.12 -10.54,-15.58 -27.59,-21.76 -43.24,-14.54 -5.74,2.64 -10.27,7.9 -15.48,12.07 1.86,-7.62 6.42,-13.04 13.98,-16.03 17.12,-6.76 35.19,-1.23 47.27,14.47 26.94,35.02 28,82.71 2.47,118.86 -22.06,31.24 -51.52,53.03 -86.72,67.45 -27.73,11.36 -56.07,21.49 -82.91,34.67 -35.09,17.23 -62.73,43.47 -81.77,78.55 32.12,-40.17 77.01,-59.54 123.69,-75.97 -7.44,3.96 -14.8,8.04 -22.31,11.85 -21.59,10.93 -43.92,20.57 -62.75,36.26 -20.12,16.77 -37.94,35.63 -51.23,58.72 1.17,-1.06 2.46,-2.02 3.48,-3.2 26.67,-30.87 59.34,-52.06 98.89,-62.9 16.8,-4.61 33.12,-11 49.61,-16.56 -2.55,49.57 -26.91,88.9 -62.18,122.85 54.98,-38.33 93.44,-88.61 111.63,-153.67 -14.12,72.05 -58.73,122.85 -115.78,164.99 0.47,0.46 0.95,0.93 1.42,1.39 4.37,-2.79 8.85,-5.46 13.12,-8.41 37.54,-25.94 73.14,-53.91 99.11,-92.35 14.11,-20.88 24.18,-43.46 30.91,-67.64 1.72,-6.18 3.46,-12.35 5.8,-18.21 -10.13,77.24 -56.99,129.9 -117.74,173.26 0.4,0.48 0.8,0.95 1.21,1.43z"/>
     <path class="fil1" d="M1564.63 659.49c5.3,-40.27 18.91,-77.89 35.59,-114.52 14.78,-32.47 34.89,-61.79 54.99,-91.08 4.96,-7.22 9.71,-14.59 14.57,-21.87 13.34,-19.96 21.36,-41.79 23.29,-65.78 0.13,-1.61 0.37,-3.21 0.65,-4.79 0.07,-0.4 0.47,-0.74 1.33,-2.01 0.37,2.33 0.8,3.9 0.86,5.5 0.86,22.05 -4.25,42.75 -15.89,61.38 -14.9,23.85 -30.73,47.11 -46.02,70.72 -25.14,38.83 -43.22,80.77 -55.59,125.33 -9.25,33.31 -7.32,66.13 1.94,98.95 0.66,2.35 1.15,4.75 0.58,7.89 -0.96,-0.9 -2.19,-1.65 -2.84,-2.73 -22.66,-38.01 -35.01,-79.55 -36.95,-123.35 -2.57,-57.71 16.51,-108.53 57.01,-150.18 17.65,-18.15 37.21,-34.45 55.74,-51.75 20.01,-18.69 36.12,-40 38.38,-68.32 0.91,-11.47 -1.71,-23.21 -2.74,-34.83 -0.13,-1.47 -0.29,-2.94 0.07,-4.49 5.47,9.34 7.93,19.41 7.72,30.16 -0.57,28.34 -12.68,51.76 -31.96,71.5 -15.78,16.14 -32.44,31.45 -49.15,46.65 -38.21,34.75 -61.55,77.13 -67.73,128.69 -2.41,20.13 -0.59,39.9 4.08,60.94 1.19,-13.91 1.88,-26.4 3.39,-38.8 3.13,-25.64 12.1,-49.23 26.85,-70.41 13.57,-19.49 27.67,-38.6 41.56,-57.87 0.64,-0.89 1.46,-1.65 3.18,-1.94 -0.66,1.46 -1.14,3.03 -2,4.37 -11.9,18.67 -23.87,37.28 -35.77,55.94 -26.05,40.84 -32.78,85.49 -26.05,132.76 0.19,1.33 0.6,2.64 0.91,3.96z"/>
     <path class="fil1" d="M1950.61 982.73c12.46,-0.03 16.42,-5.21 13.82,-18.12 4.71,4.58 3.52,9.64 0.23,14.01 -3.4,4.53 -8.01,7.39 -14.05,4.11z"/>
     <path class="fil1" d="M1325.22 784.16c53.1,1.74 106.02,-5.8 159.14,-3.31 0.02,0.86 0.04,1.71 0.05,2.57 -53.04,1.29 -106.08,2.58 -159.12,3.87 -0.02,-1.05 -0.05,-2.09 -0.07,-3.13z"/>
     <path class="fil1" d="M1572.48 785.52c-12.59,-0.58 -25.17,-1.17 -37.76,-1.75 0.02,-0.21 0.04,-0.43 0.06,-0.65 12.62,0 25.23,0 37.85,0 -0.05,0.8 -0.1,1.6 -0.14,2.4z"/>
    </g>
   </g>
   <path class="fil2" d="M3017.24 1578.17l2.52 2.52c0,8.41 -5.89,21.02 -17.66,37.84 -13.46,16.83 -38.69,41.22 -75.69,73.18 -37.01,31.95 -78.22,64.33 -123.64,97.13 -45.42,32.81 -91.67,61.4 -138.78,85.79 -47.1,24.39 -88.31,36.59 -123.64,36.59 -25.22,0 -45.83,-7.99 -61.81,-23.97 -15.98,-15.97 -23.97,-43.31 -23.97,-82 0,-23.56 2.53,-47.52 7.57,-71.91 5.04,-24.4 8.41,-48.36 10.1,-71.92l0 -2.52c0,-5.04 -1.69,-7.56 -5.05,-7.56 -6.73,0 -21.02,8.41 -42.89,25.23 -21.87,18.5 -42.89,39.95 -63.07,64.34 -20.19,24.39 -40.37,49.21 -60.55,74.43 -20.19,25.23 -41.63,49.21 -64.35,71.91 -22.7,22.71 -46.68,41.63 -71.91,56.77 -18.5,10.1 -37.01,15.14 -55.51,15.14 -23.55,0 -44.57,-7.56 -63.07,-22.7 -18.5,-15.14 -30.28,-35.33 -35.33,-60.55 -1.68,-3.37 -2.52,-9.25 -2.52,-17.67 0,-28.59 11.77,-64.33 35.33,-107.23 23.55,-42.89 53.82,-84.11 90.83,-123.64 37.01,-39.53 77.38,-73.59 121.11,-102.19 43.74,-28.6 84.95,-42.89 123.64,-42.89l20.19 0c23.55,3.37 41.62,11.77 54.24,25.23 12.62,13.45 18.93,26.07 18.93,37.84 0,11.77 -5.89,18.5 -17.67,20.19 -23.55,6.73 -54.67,22.7 -93.35,47.94 -38.69,25.23 -76.54,53.41 -113.54,84.53 -37.01,31.12 -68.97,63.92 -95.88,98.4 -26.91,34.48 -40.37,66.02 -40.37,94.62 0,8.41 2.53,12.61 7.57,12.61 11.77,0 34.49,-16.4 68.13,-49.2 33.64,-32.8 70.65,-68.54 111.01,-107.24 40.37,-38.69 80.33,-74.43 119.85,-107.23 39.53,-32.8 71.91,-49.2 97.14,-49.2 18.5,0 31.54,9.25 39.1,27.75 7.57,18.5 11.36,35.33 11.36,50.47 0,16.83 -2.1,34.06 -6.3,51.73 -4.21,17.66 -7.99,36.58 -11.36,56.77 -1.68,8.41 -2.95,15.97 -3.78,22.7 -0.84,6.73 -1.26,12.62 -1.26,17.66 0,37.01 14.29,55.51 42.89,55.51 26.91,0 62.23,-13.88 105.97,-41.63 43.74,-27.75 86.63,-58.03 128.68,-90.83 42.05,-32.8 78.22,-63.07 108.5,-90.83 30.28,-27.76 45.42,-41.63 45.42,-41.63 20.18,-20.19 34.48,-30.28 42.89,-30.28zm-1607.24 335.57c-21.87,0 -44.15,-4.63 -66.87,-13.88 -22.7,-9.25 -43.73,-21.44 -63.07,-36.58 -19.35,-15.14 -35.33,-32.81 -47.95,-52.99 -12.61,-20.18 -18.92,-42.05 -18.92,-65.61 0,-23 5.6,-49.52 16.79,-79.51 -22.66,18.93 -48.02,39.14 -76.08,60.59 -42.89,32.8 -87.88,63.07 -134.98,90.83 -47.1,27.76 -95.04,50.89 -143.82,69.39 -48.78,18.5 -95.88,27.75 -141.3,27.75 -21.87,0 -44.15,-4.63 -66.87,-13.88 -22.7,-9.25 -43.73,-21.44 -63.07,-36.58 -19.35,-15.14 -35.33,-32.81 -47.95,-52.99 -12.61,-20.18 -18.92,-42.05 -18.92,-65.61 0,-25.22 6.73,-54.67 20.19,-88.31 13.45,-33.64 31.11,-65.6 52.98,-95.88 21.87,-30.28 46.68,-55.5 74.44,-75.69 27.75,-20.18 56.77,-30.28 87.05,-30.28 20.18,0 39.53,4.63 58.03,13.88 18.5,9.25 27.75,25.65 27.75,49.2 0,21.87 -9.68,42.89 -29.02,63.08 -19.35,20.18 -40.8,37.84 -64.35,52.99 -23.55,15.14 -45,27.33 -64.33,36.58 -19.35,9.25 -29.86,14.72 -31.55,16.4 -10.09,8.42 -17.66,22.28 -22.7,41.63 -5.05,19.35 -7.57,37.42 -7.57,54.25 0,5.04 0.43,9.25 1.26,12.62 0.84,3.37 1.26,6.73 1.26,10.1 3.37,26.91 13.46,46.25 30.29,58.03 16.82,11.77 37.84,17.66 63.07,17.66 38.68,0 84.53,-10.51 137.51,-31.54 52.98,-21.02 104.29,-45.42 153.91,-73.17 49.62,-27.75 93.36,-55.51 131.21,-83.27 37.84,-27.75 61.81,-47.52 71.91,-59.29 3.36,-3.37 8.83,-10.1 16.4,-20.19 7.56,-10.1 15.56,-19.35 23.96,-27.76l1.6 -1.5c5.07,-8.02 10.43,-15.93 16.06,-23.73 21.87,-30.28 46.69,-55.5 74.44,-75.69 27.75,-20.18 56.77,-30.28 87.05,-30.28 20.18,0 39.53,4.63 58.03,13.88 18.5,9.25 27.75,25.65 27.75,49.2 0,21.87 -9.68,42.89 -29.01,63.08 -19.35,20.18 -40.8,37.84 -64.35,52.99 -23.55,15.14 -45,27.33 -64.34,36.58 -19.35,9.25 -29.86,14.72 -31.55,16.4 -10.09,8.42 -17.66,22.28 -22.7,41.63 -5.05,19.35 -7.57,37.42 -7.57,54.25 0,5.04 0.43,9.25 1.26,12.62 0.84,3.37 1.26,6.73 1.26,10.1 3.36,26.91 13.46,46.25 30.29,58.03 16.82,11.77 37.84,17.66 63.07,17.66 38.69,0 84.53,-10.51 137.52,-31.54 52.98,-21.02 104.29,-45.42 153.9,-73.17 49.62,-27.75 93.36,-55.51 131.21,-83.27 37.84,-27.75 61.81,-47.52 71.91,-59.29 3.37,-3.37 8.83,-10.1 16.4,-20.19 4.52,-6.03 9.19,-11.75 14.01,-17.18 27.3,-113.12 55.02,-221.34 83.12,-324.7 28.6,-105.13 50.47,-193.86 65.61,-266.2 8.41,-33.64 12.19,-62.66 11.36,-87.05 -0.84,-24.39 0,-46.68 2.52,-66.86 2.52,-20.19 8.83,-39.53 18.92,-58.03 10.1,-18.5 30.28,-40.37 60.55,-65.61 28.6,-25.23 52.99,-37.85 73.17,-37.85 18.5,0 27.75,12.62 27.75,37.85 0,15.14 -5.04,37.01 -15.14,65.61 -10.09,26.91 -26.48,73.59 -49.2,140.03 -22.71,66.45 -48.36,145.09 -76.95,235.92 -28.6,90.83 -58.46,189.23 -89.58,295.21 -31.12,105.97 -59.29,211.95 -84.53,317.91 -25.22,105.97 -46.26,208.16 -63.07,306.56 -16.83,98.4 -25.23,183.77 -25.23,256.1 0,65.61 8.41,118.17 25.23,157.71 16.82,39.53 44.57,59.29 83.27,59.29l2.52 0c6.73,0 10.1,3.37 10.1,10.09 0,6.73 -2.95,13.88 -8.84,21.45 -5.89,7.56 -14.72,11.36 -26.49,11.36 -10.1,0 -20.61,-3.79 -31.54,-11.36 -10.94,-7.57 -23.13,-20.61 -36.59,-39.11 -23.55,-33.64 -39.95,-75.28 -49.2,-124.9 -9.25,-49.61 -13.88,-103.86 -13.88,-162.74 0,-95.88 10.51,-201.85 31.54,-317.91 17.99,-99.33 38.45,-198.35 61.38,-297.06 -26.43,22.67 -56.98,47.25 -91.65,73.76 -42.89,32.8 -87.88,63.07 -134.98,90.83 -47.1,27.76 -95.04,50.89 -143.82,69.39 -48.78,18.5 -95.88,27.75 -141.3,27.75zm-52.99 -257.36c5.05,0 15.14,-5.04 30.28,-15.14 15.14,-10.1 30.7,-21.87 46.69,-35.32 15.97,-13.46 30.69,-26.92 44.15,-40.37 13.45,-13.46 20.18,-24.39 20.18,-32.81 0,-6.72 -5.04,-10.09 -15.14,-10.09 -8.41,1.68 -19.76,8.41 -34.06,20.18 -14.3,11.77 -28.6,24.82 -42.89,39.11 -14.31,14.29 -26.49,28.6 -36.59,42.89 -10.1,14.29 -15.14,23.97 -15.14,29.02l0 2.52 2.52 0zm-676.2 0c5.05,0 15.14,-5.04 30.28,-15.14 15.14,-10.1 30.7,-21.87 46.68,-35.32 15.97,-13.46 30.69,-26.92 44.15,-40.37 13.45,-13.46 20.18,-24.39 20.18,-32.81 0,-6.72 -5.04,-10.09 -15.14,-10.09 -8.41,1.68 -19.76,8.41 -34.06,20.18 -14.3,11.77 -28.6,24.82 -42.89,39.11 -14.3,14.29 -26.49,28.6 -36.59,42.89 -10.1,14.29 -15.14,23.97 -15.14,29.02l0 2.52 2.52 0zm-292.68 948.71c-10.1,0 -20.61,-3.79 -31.54,-11.36 -10.94,-7.57 -23.13,-20.61 -36.59,-39.11 -23.55,-33.64 -39.95,-75.28 -49.2,-124.9 -9.25,-49.61 -13.88,-103.86 -13.88,-162.74 0,-95.88 10.51,-201.85 31.54,-317.91 21.02,-116.06 45.42,-231.71 73.17,-346.94 27.75,-115.22 55.94,-225.4 84.53,-330.53 28.6,-105.13 50.47,-193.86 65.61,-266.2 8.41,-33.64 12.19,-62.66 11.36,-87.05 -0.84,-24.39 0,-46.68 2.52,-66.86 2.52,-20.19 8.82,-39.53 18.92,-58.03 10.1,-18.5 30.28,-40.37 60.55,-65.61 28.6,-25.23 52.99,-37.85 73.17,-37.85 18.5,0 27.75,12.62 27.75,37.85 0,15.14 -5.04,37.01 -15.14,65.61 -10.09,26.91 -26.48,73.59 -49.2,140.03 -22.71,66.45 -48.36,145.09 -76.95,235.92 -28.6,90.83 -58.46,189.23 -89.58,295.21 -31.12,105.97 -59.29,211.95 -84.53,317.91 -25.22,105.97 -46.26,208.16 -63.07,306.56 -16.83,98.4 -25.23,183.77 -25.23,256.1 0,65.61 8.41,118.17 25.23,157.71 16.82,39.53 44.57,59.29 83.27,59.29l2.52 0c6.73,0 10.1,3.37 10.1,10.09 0,6.73 -2.95,13.88 -8.84,21.45 -5.89,7.56 -14.72,11.36 -26.49,11.36z"/>
   <g style="clip-path:url(#id0)">
    <g>
     <image transform="matrix(1.60187 -0.827411 0.975692 2.127 -497.568 1273.09)" x="0" y="0" width="1825.04" height="1026.61" xlink:href="Favicon_Images\Favicon_ImgID1.png"/>
     <image x="-310.91" y="322.16" width="4080.76" height="4080.77" xlink:href="Favicon_Images\Favicon_ImgID2.png"/>
    </g>
   </g>
   <path class="fil3" d="M3017.24 1578.17l2.52 2.52c0,8.41 -5.89,21.02 -17.66,37.84 -13.46,16.83 -38.69,41.22 -75.69,73.18 -37.01,31.95 -78.22,64.33 -123.64,97.13 -45.42,32.81 -91.67,61.4 -138.78,85.79 -47.1,24.39 -88.31,36.59 -123.64,36.59 -25.22,0 -45.83,-7.99 -61.81,-23.97 -15.98,-15.97 -23.97,-43.31 -23.97,-82 0,-23.56 2.53,-47.52 7.57,-71.91 5.04,-24.4 8.41,-48.36 10.1,-71.92l0 -2.52c0,-5.04 -1.69,-7.56 -5.05,-7.56 -6.73,0 -21.02,8.41 -42.89,25.23 -21.87,18.5 -42.89,39.95 -63.07,64.34 -20.19,24.39 -40.37,49.21 -60.55,74.43 -20.19,25.23 -41.63,49.21 -64.35,71.91 -22.7,22.71 -46.68,41.63 -71.91,56.77 -18.5,10.1 -37.01,15.14 -55.51,15.14 -23.55,0 -44.57,-7.56 -63.07,-22.7 -18.5,-15.14 -30.28,-35.33 -35.33,-60.55 -1.68,-3.37 -2.52,-9.25 -2.52,-17.67 0,-28.59 11.77,-64.33 35.33,-107.23 23.55,-42.89 53.82,-84.11 90.83,-123.64 37.01,-39.53 77.38,-73.59 121.11,-102.19 43.74,-28.6 84.95,-42.89 123.64,-42.89l20.19 0c23.55,3.37 41.62,11.77 54.24,25.23 12.62,13.45 18.93,26.07 18.93,37.84 0,11.77 -5.89,18.5 -17.67,20.19 -23.55,6.73 -54.67,22.7 -93.35,47.94 -38.69,25.23 -76.54,53.41 -113.54,84.53 -37.01,31.12 -68.97,63.92 -95.88,98.4 -26.91,34.48 -40.37,66.02 -40.37,94.62 0,8.41 2.53,12.61 7.57,12.61 11.77,0 34.49,-16.4 68.13,-49.2 33.64,-32.8 70.65,-68.54 111.01,-107.24 40.37,-38.69 80.33,-74.43 119.85,-107.23 39.53,-32.8 71.91,-49.2 97.14,-49.2 18.5,0 31.54,9.25 39.1,27.75 7.57,18.5 11.36,35.33 11.36,50.47 0,16.83 -2.1,34.06 -6.3,51.73 -4.21,17.66 -7.99,36.58 -11.36,56.77 -1.68,8.41 -2.95,15.97 -3.78,22.7 -0.84,6.73 -1.26,12.62 -1.26,17.66 0,37.01 14.29,55.51 42.89,55.51 26.91,0 62.23,-13.88 105.97,-41.63 43.74,-27.75 86.63,-58.03 128.68,-90.83 42.05,-32.8 78.22,-63.07 108.5,-90.83 30.28,-27.76 45.42,-41.63 45.42,-41.63 20.18,-20.19 34.48,-30.28 42.89,-30.28zm-1607.24 335.57c-21.87,0 -44.15,-4.63 -66.87,-13.88 -22.7,-9.25 -43.73,-21.44 -63.07,-36.58 -19.35,-15.14 -35.33,-32.81 -47.95,-52.99 -12.61,-20.18 -18.92,-42.05 -18.92,-65.61 0,-23 5.6,-49.52 16.79,-79.51 -22.66,18.93 -48.02,39.14 -76.08,60.59 -42.89,32.8 -87.88,63.07 -134.98,90.83 -47.1,27.76 -95.04,50.89 -143.82,69.39 -48.78,18.5 -95.88,27.75 -141.3,27.75 -21.87,0 -44.15,-4.63 -66.87,-13.88 -22.7,-9.25 -43.73,-21.44 -63.07,-36.58 -19.35,-15.14 -35.33,-32.81 -47.95,-52.99 -12.61,-20.18 -18.92,-42.05 -18.92,-65.61 0,-25.22 6.73,-54.67 20.19,-88.31 13.45,-33.64 31.11,-65.6 52.98,-95.88 21.87,-30.28 46.68,-55.5 74.44,-75.69 27.75,-20.18 56.77,-30.28 87.05,-30.28 20.18,0 39.53,4.63 58.03,13.88 18.5,9.25 27.75,25.65 27.75,49.2 0,21.87 -9.68,42.89 -29.02,63.08 -19.35,20.18 -40.8,37.84 -64.35,52.99 -23.55,15.14 -45,27.33 -64.33,36.58 -19.35,9.25 -29.86,14.72 -31.55,16.4 -10.09,8.42 -17.66,22.28 -22.7,41.63 -5.05,19.35 -7.57,37.42 -7.57,54.25 0,5.04 0.43,9.25 1.26,12.62 0.84,3.37 1.26,6.73 1.26,10.1 3.37,26.91 13.46,46.25 30.29,58.03 16.82,11.77 37.84,17.66 63.07,17.66 38.68,0 84.53,-10.51 137.51,-31.54 52.98,-21.02 104.29,-45.42 153.91,-73.17 49.62,-27.75 93.36,-55.51 131.21,-83.27 37.84,-27.75 61.81,-47.52 71.91,-59.29 3.36,-3.37 8.83,-10.1 16.4,-20.19 7.56,-10.1 15.56,-19.35 23.96,-27.76l1.6 -1.5c5.07,-8.02 10.43,-15.93 16.06,-23.73 21.87,-30.28 46.69,-55.5 74.44,-75.69 27.75,-20.18 56.77,-30.28 87.05,-30.28 20.18,0 39.53,4.63 58.03,13.88 18.5,9.25 27.75,25.65 27.75,49.2 0,21.87 -9.68,42.89 -29.01,63.08 -19.35,20.18 -40.8,37.84 -64.35,52.99 -23.55,15.14 -45,27.33 -64.34,36.58 -19.35,9.25 -29.86,14.72 -31.55,16.4 -10.09,8.42 -17.66,22.28 -22.7,41.63 -5.05,19.35 -7.57,37.42 -7.57,54.25 0,5.04 0.43,9.25 1.26,12.62 0.84,3.37 1.26,6.73 1.26,10.1 3.36,26.91 13.46,46.25 30.29,58.03 16.82,11.77 37.84,17.66 63.07,17.66 38.69,0 84.53,-10.51 137.52,-31.54 52.98,-21.02 104.29,-45.42 153.9,-73.17 49.62,-27.75 93.36,-55.51 131.21,-83.27 37.84,-27.75 61.81,-47.52 71.91,-59.29 3.37,-3.37 8.83,-10.1 16.4,-20.19 4.52,-6.03 9.19,-11.75 14.01,-17.18 27.3,-113.12 55.02,-221.34 83.12,-324.7 28.6,-105.13 50.47,-193.86 65.61,-266.2 8.41,-33.64 12.19,-62.66 11.36,-87.05 -0.84,-24.39 0,-46.68 2.52,-66.86 2.52,-20.19 8.83,-39.53 18.92,-58.03 10.1,-18.5 30.28,-40.37 60.55,-65.61 28.6,-25.23 52.99,-37.85 73.17,-37.85 18.5,0 27.75,12.62 27.75,37.85 0,15.14 -5.04,37.01 -15.14,65.61 -10.09,26.91 -26.48,73.59 -49.2,140.03 -22.71,66.45 -48.36,145.09 -76.95,235.92 -28.6,90.83 -58.46,189.23 -89.58,295.21 -31.12,105.97 -59.29,211.95 -84.53,317.91 -25.22,105.97 -46.26,208.16 -63.07,306.56 -16.83,98.4 -25.23,183.77 -25.23,256.1 0,65.61 8.41,118.17 25.23,157.71 16.82,39.53 44.57,59.29 83.27,59.29l2.52 0c6.73,0 10.1,3.37 10.1,10.09 0,6.73 -2.95,13.88 -8.84,21.45 -5.89,7.56 -14.72,11.36 -26.49,11.36 -10.1,0 -20.61,-3.79 -31.54,-11.36 -10.94,-7.57 -23.13,-20.61 -36.59,-39.11 -23.55,-33.64 -39.95,-75.28 -49.2,-124.9 -9.25,-49.61 -13.88,-103.86 -13.88,-162.74 0,-95.88 10.51,-201.85 31.54,-317.91 17.99,-99.33 38.45,-198.35 61.38,-297.06 -26.43,22.67 -56.98,47.25 -91.65,73.76 -42.89,32.8 -87.88,63.07 -134.98,90.83 -47.1,27.76 -95.04,50.89 -143.82,69.39 -48.78,18.5 -95.88,27.75 -141.3,27.75zm-52.99 -257.36c5.05,0 15.14,-5.04 30.28,-15.14 15.14,-10.1 30.7,-21.87 46.69,-35.32 15.97,-13.46 30.69,-26.92 44.15,-40.37 13.45,-13.46 20.18,-24.39 20.18,-32.81 0,-6.72 -5.04,-10.09 -15.14,-10.09 -8.41,1.68 -19.76,8.41 -34.06,20.18 -14.3,11.77 -28.6,24.82 -42.89,39.11 -14.31,14.29 -26.49,28.6 -36.59,42.89 -10.1,14.29 -15.14,23.97 -15.14,29.02l0 2.52 2.52 0zm-676.2 0c5.05,0 15.14,-5.04 30.28,-15.14 15.14,-10.1 30.7,-21.87 46.68,-35.32 15.97,-13.46 30.69,-26.92 44.15,-40.37 13.45,-13.46 20.18,-24.39 20.18,-32.81 0,-6.72 -5.04,-10.09 -15.14,-10.09 -8.41,1.68 -19.76,8.41 -34.06,20.18 -14.3,11.77 -28.6,24.82 -42.89,39.11 -14.3,14.29 -26.49,28.6 -36.59,42.89 -10.1,14.29 -15.14,23.97 -15.14,29.02l0 2.52 2.52 0zm-292.68 948.71c-10.1,0 -20.61,-3.79 -31.54,-11.36 -10.94,-7.57 -23.13,-20.61 -36.59,-39.11 -23.55,-33.64 -39.95,-75.28 -49.2,-124.9 -9.25,-49.61 -13.88,-103.86 -13.88,-162.74 0,-95.88 10.51,-201.85 31.54,-317.91 21.02,-116.06 45.42,-231.71 73.17,-346.94 27.75,-115.22 55.94,-225.4 84.53,-330.53 28.6,-105.13 50.47,-193.86 65.61,-266.2 8.41,-33.64 12.19,-62.66 11.36,-87.05 -0.84,-24.39 0,-46.68 2.52,-66.86 2.52,-20.19 8.82,-39.53 18.92,-58.03 10.1,-18.5 30.28,-40.37 60.55,-65.61 28.6,-25.23 52.99,-37.85 73.17,-37.85 18.5,0 27.75,12.62 27.75,37.85 0,15.14 -5.04,37.01 -15.14,65.61 -10.09,26.91 -26.48,73.59 -49.2,140.03 -22.71,66.45 -48.36,145.09 -76.95,235.92 -28.6,90.83 -58.46,189.23 -89.58,295.21 -31.12,105.97 -59.29,211.95 -84.53,317.91 -25.22,105.97 -46.26,208.16 -63.07,306.56 -16.83,98.4 -25.23,183.77 -25.23,256.1 0,65.61 8.41,118.17 25.23,157.71 16.82,39.53 44.57,59.29 83.27,59.29l2.52 0c6.73,0 10.1,3.37 10.1,10.09 0,6.73 -2.95,13.88 -8.84,21.45 -5.89,7.56 -14.72,11.36 -26.49,11.36z"/>
  </g>
 </g>
</svg>
